<svg xmlns="http://www.w3.org/2000/svg" viewBox="0 0 425.2 452.48"><defs><style>.cls-1{fill:#fff;}</style></defs><g id="Layer_2" data-name="Layer 2"><g id="レイヤー_1" data-name="レイヤー 1"><path class="cls-1" d="M70.88,274.21a95.74,95.74,0,1,0,95.74-95.74A95.85,95.85,0,0,0,70.88,274.21Zm24.46,0a71.28,71.28,0,1,1,71.28,71.29A71.35,71.35,0,0,1,95.34,274.21Z"/><path class="cls-1" d="M220.3,87.94a43.47,43.47,0,0,0-30.56,30.43L160.53,227.43a43.26,43.26,0,0,0,52.86,52.87l109-29.21a43.26,43.26,0,0,0,19.4-72.23L262,99.07A43.43,43.43,0,0,0,220.3,87.94Zm-7,36.82a18.82,18.82,0,0,1,31.41-8.37l79.73,79.72A18.8,18.8,0,0,1,316,227.48l-108.9,29.19a18.85,18.85,0,0,1-23-23Z"/><path class="cls-1" d="M0,11.16c0-.95.44-1.43,1.3-1.43s1.3.48,1.3,1.43v2.72a10.43,10.43,0,0,1,8.24-4.15,10.45,10.45,0,0,1,7.66,3,9.49,9.49,0,0,1,2.89,7A9.64,9.64,0,0,1,18.5,26.9,10.2,10.2,0,0,1,11,29.76a10.2,10.2,0,0,1-8.38-4v6c0,.95-.43,1.43-1.3,1.43S0,32.72,0,31.77ZM2.6,17v5.43c1.84,3.53,4.53,5.3,8.1,5.3a7.62,7.62,0,0,0,7.8-8A7.75,7.75,0,0,0,16.19,14a7.56,7.56,0,0,0-5.49-2.29C7.33,11.73,4.62,13.5,2.6,17Z"/><path class="cls-1" d="M40.48,12.45a7.81,7.81,0,0,1,2.45,5.72A1.65,1.65,0,0,1,41.05,20H26a7.38,7.38,0,0,0,7.37,7.73,6.75,6.75,0,0,0,5.35-2.15A6.92,6.92,0,0,0,40.19,23a1.14,1.14,0,0,1,1.58-.58A1.22,1.22,0,0,1,42.35,24a9.42,9.42,0,0,1-1.87,3.15c-1.45,1.72-3.76,2.57-6.94,2.57A10.22,10.22,0,0,1,26,26.9a10.19,10.19,0,0,1-2.89-7.58A9.16,9.16,0,0,1,26,12.59a10,10,0,0,1,7.37-2.86A9.64,9.64,0,0,1,40.48,12.45ZM26,18h13.3a.64.64,0,0,0,.72-.72,5.05,5.05,0,0,0-1.74-3.58,6.89,6.89,0,0,0-5-2A7.56,7.56,0,0,0,26,18Z"/><path class="cls-1" d="M46.11,11.16c0-.95.44-1.43,1.3-1.43s1.3.48,1.3,1.43v3.58a11.12,11.12,0,0,1,2-3.15q1.88-1.86,6.5-1.86c.87,0,1.31.38,1.31,1.14S58.11,12,57.24,12H55.65a6,6,0,0,0-4.34,1.57A10.76,10.76,0,0,0,48.71,18v10.3c0,1-.43,1.43-1.3,1.43s-1.3-.47-1.3-1.43Z"/><path class="cls-1" d="M75.74,12.16a3.74,3.74,0,0,1,1.16,2.15,1.25,1.25,0,0,1-.72,1.43A1.21,1.21,0,0,1,74.59,15q-1.45-3.28-6.07-3.29-3.76,0-5.21,1.43a2.89,2.89,0,0,0-.86,2.15c0,1.14,1.06,1.91,3.17,2.29S70.3,18.46,73,19a8.45,8.45,0,0,1,3.61,1.86,4.8,4.8,0,0,1,1.3,3.58,3.67,3.67,0,0,1-1.44,3,11.32,11.32,0,0,1-7.23,2.28q-4.92,0-7.66-2.43A5.16,5.16,0,0,1,60,25a1.38,1.38,0,0,1,.58-1.86,1.25,1.25,0,0,1,1.73.71A4.63,4.63,0,0,0,63.6,26q1.74,1.73,5.64,1.72a8.57,8.57,0,0,0,5.06-1.43,2.31,2.31,0,0,0,1-2c0-1.62-1.15-2.66-3.47-3.14L65.48,20c-3.75-.76-5.64-2.33-5.64-4.72a4.81,4.81,0,0,1,1.6-3.44c1.44-1.42,3.76-2.14,6.94-2.14C71.74,9.73,74.2,10.54,75.74,12.16Z"/><path class="cls-1" d="M98.87,12.87a9.12,9.12,0,0,1,2.75,6.73A9.64,9.64,0,0,1,99,26.76c-2,2-4.82,3-8.39,3s-6.36-1-8.38-3a9.64,9.64,0,0,1-2.6-7.16,9.11,9.11,0,0,1,2.74-6.73,12.38,12.38,0,0,1,16.48,0ZM84.7,14.16a7.37,7.37,0,0,0-2.16,5.44,7.89,7.89,0,0,0,2.16,5.87,8.82,8.82,0,0,0,11.86,0,7.9,7.9,0,0,0,2.17-5.87,7.38,7.38,0,0,0-2.17-5.44,8.45,8.45,0,0,0-11.86,0Z"/><path class="cls-1" d="M104.8,11.16c0-.95.43-1.43,1.3-1.43s1.3.48,1.3,1.43v3.58a14.42,14.42,0,0,1,2.17-2.44,10.45,10.45,0,0,1,6.94-2.57,9.24,9.24,0,0,1,6.79,2.43,7.71,7.71,0,0,1,2,5.72V28.33c0,1-.43,1.43-1.3,1.43s-1.3-.47-1.3-1.43v-10a6.38,6.38,0,0,0-1.59-4.73,6.67,6.67,0,0,0-4.91-1.86,8.79,8.79,0,0,0-6.8,2.86,8.76,8.76,0,0,0-2,3.15V28.33c0,1-.43,1.43-1.3,1.43s-1.3-.47-1.3-1.43Z"/><path class="cls-1" d="M145.27,11.87a5.81,5.81,0,0,1,1.59,4.3v9.59c0,1.33.62,2,1.88,2,.87,0,1.3.29,1.3.86,0,.76-.43,1.14-1.3,1.14-1.64,0-2.65-.19-3-.57a4.14,4.14,0,0,1-1.44-2.86,10.27,10.27,0,0,1-8.1,3.43q-4.18,0-5.92-1.71a5.08,5.08,0,0,1-1.73-3.58A4.8,4.8,0,0,1,130,20.89q2.31-2.28,7.81-2.57a26.32,26.32,0,0,0,4-.44,3.71,3.71,0,0,0,1.74-.85,2.72,2.72,0,0,0,.72-2,2.49,2.49,0,0,0-.87-1.72c-1.06-1-2.84-1.57-5.34-1.57-3.38,0-5.45,1.2-6.22,3.58-.29.86-.82,1.19-1.59,1a1.19,1.19,0,0,1-.72-1.57A5.63,5.63,0,0,1,131,12.16q2.46-2.43,7.23-2.43C141.47,9.73,143.83,10.45,145.27,11.87Zm-1,7c-.67.48-2.46.86-5.35,1.14q-7.66.72-7.66,4.15,0,3.59,4.91,3.58a9.52,9.52,0,0,0,8.1-3.87Z"/><path class="cls-1" d="M154.38.43A2.28,2.28,0,0,1,157,3V28.33c0,1-.43,1.43-1.3,1.43s-1.3-.47-1.3-1.43V4a.9.9,0,0,0-1-1h-.58c-1,0-1.45-.38-1.45-1.14A1.27,1.27,0,0,1,152.79.43Z"/><path class="cls-1" d="M164.35,3a1.92,1.92,0,0,1,.58,1.44,1.93,1.93,0,0,1-.58,1.43,2,2,0,0,1-3.47-1.43A2.05,2.05,0,0,1,164.35,3Zm-2.74,8.16c0-.95.43-1.43,1.3-1.43s1.3.48,1.3,1.43V28.33c0,1-.44,1.43-1.3,1.43s-1.3-.47-1.3-1.43Z"/><path class="cls-1" d="M171.58,9.73v-4c0-1,.44-1.43,1.3-1.43s1.3.48,1.3,1.43v4h4.91c.78,0,1.16.33,1.16,1s-.38,1-1.16,1h-4.91V25a2.39,2.39,0,0,0,.73,2,3.64,3.64,0,0,0,2.31.58,4.71,4.71,0,0,0,1.87-.43,1.11,1.11,0,0,1,1.45.57c.19.67-.09,1.19-.87,1.58a8.49,8.49,0,0,1-2.89.42,6.33,6.33,0,0,1-3.9-1,4.35,4.35,0,0,1-1.3-3.43V11.73h-3.47c-.77,0-1.16-.33-1.16-1s.39-1,1.16-1Z"/><path class="cls-1" d="M189.21,24.47l-7.23-13a1.3,1.3,0,0,1,.44-1.72c.78-.38,1.4-.14,1.88.72l6.36,11.3,5.49-11.3c.48-.86,1.11-1.1,1.88-.72a1.29,1.29,0,0,1,.43,1.72l-9.83,19.32a4.58,4.58,0,0,1-1.73,1.85,5.47,5.47,0,0,1-2.74.58,6.49,6.49,0,0,1-2-.29,1.13,1.13,0,0,1-.72-1.29.93.93,0,0,1,1.15-.71,6.68,6.68,0,0,0,1.74.29c1,0,1.78-.63,2.46-1.86Z"/><path class="cls-1" d="M228.54,0a6.67,6.67,0,0,1,4.91,1.86A5.54,5.54,0,0,1,235,6a5.18,5.18,0,0,1-1.59,3.86,16.88,16.88,0,0,1-5.78,3.58,53.51,53.51,0,0,0,8.81,9.16A49.82,49.82,0,0,0,239.81,18a1.42,1.42,0,0,1,1.89-.29,1.51,1.51,0,0,1,.42,1.86,44.69,44.69,0,0,1-3.61,4.72,24.28,24.28,0,0,0,4.77,2.58,1.62,1.62,0,0,1,.58,2.15,1.65,1.65,0,0,1-2.16.43,28.5,28.5,0,0,1-5.22-3.15A13.91,13.91,0,0,1,227,29.76q-4.77,0-7.23-2.43a7.91,7.91,0,0,1-2.31-5.87,8.28,8.28,0,0,1,2.46-6.15,18.87,18.87,0,0,1,4.19-3,10.34,10.34,0,0,1-2.46-6A5.79,5.79,0,0,1,223.34,2,7.06,7.06,0,0,1,228.54,0Zm-6.65,16.88a6,6,0,0,0-1.59,4.44,5.41,5.41,0,0,0,1.44,4,7.34,7.34,0,0,0,5.35,2.15,11.43,11.43,0,0,0,7.67-2.87,67,67,0,0,1-9.55-10.16A14.28,14.28,0,0,0,221.89,16.88Zm3.32-13.3a3.14,3.14,0,0,0-1,2.29,8,8,0,0,0,1,3.43,7.12,7.12,0,0,0,1.31,1.86c3.95-1.43,5.92-3.2,5.92-5.29a3.69,3.69,0,0,0-1-2.73,3.78,3.78,0,0,0-2.74-.85A4.72,4.72,0,0,0,225.21,3.58Z"/><path class="cls-1" d="M263,1.86c0-1,.43-1.43,1.3-1.43s1.3.47,1.3,1.43V14.74a10.75,10.75,0,0,1,9.26-5c2.78,0,4.9.72,6.35,2.14A8.3,8.3,0,0,1,283.55,18v10.3c0,1-.44,1.43-1.31,1.43S281,29.29,281,28.33V18.46a6.74,6.74,0,0,0-1.74-5,6.48,6.48,0,0,0-4.77-1.72,8.79,8.79,0,0,0-6.8,2.86,8.76,8.76,0,0,0-2,3.15V28.33c0,1-.43,1.43-1.3,1.43s-1.3-.47-1.3-1.43Z"/><path class="cls-1" d="M303.49,11.87a5.81,5.81,0,0,1,1.6,4.3v9.59c0,1.33.61,2,1.87,2,.87,0,1.3.29,1.3.86,0,.76-.43,1.14-1.3,1.14-1.64,0-2.65-.19-3-.57a4.14,4.14,0,0,1-1.44-2.86,10.27,10.27,0,0,1-8.1,3.43q-4.19,0-5.92-1.71a5,5,0,0,1-1.73-3.58,4.84,4.84,0,0,1,1.44-3.58q2.31-2.28,7.81-2.57a26.32,26.32,0,0,0,4-.44,3.71,3.71,0,0,0,1.74-.85,2.72,2.72,0,0,0,.72-2,2.51,2.51,0,0,0-.86-1.72c-1.07-1-2.85-1.57-5.35-1.57-3.38,0-5.45,1.2-6.22,3.58-.29.86-.82,1.19-1.59,1a1.2,1.2,0,0,1-.72-1.57,5.63,5.63,0,0,1,1.44-2.58q2.46-2.43,7.23-2.43C299.69,9.73,302.05,10.45,303.49,11.87Zm-1,7q-1,.72-5.35,1.14c-5.11.48-7.65,1.86-7.65,4.15s1.63,3.58,4.9,3.58a9.54,9.54,0,0,0,8.1-3.87Z"/><path class="cls-1" d="M311.45,11.16c0-.95.43-1.43,1.29-1.43s1.31.48,1.31,1.43v3.58a10.91,10.91,0,0,1,2-3.15c1.25-1.24,3.41-1.86,6.5-1.86.87,0,1.31.38,1.31,1.14S323.44,12,322.57,12H321a5.9,5.9,0,0,0-4.33,1.57,10.55,10.55,0,0,0-2.6,4.44v10.3c0,1-.44,1.43-1.31,1.43s-1.29-.47-1.29-1.43Z"/><path class="cls-1" d="M326.62,11.16c0-.95.43-1.43,1.3-1.43s1.31.48,1.31,1.43V13.3a8.64,8.64,0,0,1,6.93-3.57,5.48,5.48,0,0,1,4.62,1.86A7.65,7.65,0,0,1,342.23,14q2.89-4.29,7.22-4.29a6.9,6.9,0,0,1,5.07,1.86A7.33,7.33,0,0,1,356.39,17v11.3c0,1-.43,1.43-1.3,1.43s-1.3-.47-1.3-1.43V16.74a5,5,0,0,0-1.3-3.72,4.51,4.51,0,0,0-3.32-1.29,6.34,6.34,0,0,0-4.63,1.86,6.45,6.45,0,0,0-1.74,3.15V28.33c0,1-.42,1.43-1.29,1.43s-1.31-.47-1.31-1.43V16.74A5,5,0,0,0,338.91,13a4.54,4.54,0,0,0-3.33-1.29,6.36,6.36,0,0,0-6.35,5V28.33c0,1-.44,1.43-1.31,1.43s-1.3-.47-1.3-1.43Z"/><path class="cls-1" d="M378.8,12.87a9.12,9.12,0,0,1,2.75,6.73,9.64,9.64,0,0,1-2.6,7.16q-3,3-8.39,3t-8.38-3a9.64,9.64,0,0,1-2.6-7.16,9.11,9.11,0,0,1,2.74-6.73,12.38,12.38,0,0,1,16.48,0Zm-14.16,1.29a7.38,7.38,0,0,0-2.17,5.44,7.9,7.9,0,0,0,2.17,5.87,8.8,8.8,0,0,0,11.84,0,7.82,7.82,0,0,0,2.18-5.87,7.31,7.31,0,0,0-2.18-5.44,8.43,8.43,0,0,0-11.84,0Z"/><path class="cls-1" d="M384.73,11.16c0-.95.43-1.43,1.3-1.43s1.3.48,1.3,1.43v3.58a14.87,14.87,0,0,1,2.17-2.44,10.45,10.45,0,0,1,6.94-2.57,9.24,9.24,0,0,1,6.79,2.43,7.71,7.71,0,0,1,2,5.72V28.33c0,1-.43,1.43-1.3,1.43s-1.3-.47-1.3-1.43v-10a6.38,6.38,0,0,0-1.59-4.73,6.69,6.69,0,0,0-4.91-1.86,8.79,8.79,0,0,0-6.8,2.86,8.76,8.76,0,0,0-2,3.15V28.33c0,1-.43,1.43-1.3,1.43s-1.3-.47-1.3-1.43Z"/><path class="cls-1" d="M415.8,24.47l-7.22-13A1.28,1.28,0,0,1,409,9.73c.76-.38,1.39-.14,1.87.72l6.36,11.3,5.49-11.3c.48-.86,1.11-1.1,1.88-.72a1.29,1.29,0,0,1,.43,1.72l-9.82,19.32a4.81,4.81,0,0,1-1.74,1.85,5.47,5.47,0,0,1-2.74.58,6.43,6.43,0,0,1-2-.29,1.13,1.13,0,0,1-.73-1.29,1,1,0,0,1,1.16-.71,6.61,6.61,0,0,0,1.73.29c1,0,1.78-.63,2.46-1.86Z"/><path class="cls-1" d="M21,426.54s-17.36,14-17.92,14.52v-12.9c0-.54-.14-1-.42-1.1a1.47,1.47,0,0,0-1.16-.43,1.34,1.34,0,0,0-1.09.43c-.28.14-.42.56-.42,1.1v22.77a1.36,1.36,0,0,0,1.51,1.55,1.41,1.41,0,0,0,1.58-1.55v-6.28c.14-.1,7-5.61,7.21-5.82l12.44,13a1.71,1.71,0,0,0,2.26.4,1.33,1.33,0,0,0,.6-1.06,1.85,1.85,0,0,0-.41-1.07s-12.43-12.66-12.7-13l10.37-8.38a1.52,1.52,0,0,0,.62-1.18,1.38,1.38,0,0,0-.31-.82A1.43,1.43,0,0,0,21,426.54Zm17.39,1.27h0L26.79,450.34c-.52,1.18.05,1.74.62,2a1.71,1.71,0,0,0,2.13-.82l3.06-6H48.31l3.06,6a1.69,1.69,0,0,0,2.11.83,1.33,1.33,0,0,0,.66-2L42.51,427.8a2.38,2.38,0,0,0-4.11,0Zm2.06,2.12c.31.66,6.46,12.7,6.72,13.22H33.74C34,442.63,40.15,430.59,40.46,429.93Zm15.25-3.3a1.3,1.3,0,0,0-1,1.71l6.35,22.52a2.15,2.15,0,0,0,2.34,1.62,2.07,2.07,0,0,0,2.21-1.62s5.29-19.79,5.63-21c.34,1.21,5.76,21,5.76,21a2.06,2.06,0,0,0,2.2,1.62,2.17,2.17,0,0,0,2.35-1.62l6.21-22.51a1.4,1.4,0,0,0,0-1.16,1.43,1.43,0,0,0-.92-.55,1.51,1.51,0,0,0-2,1.22l-5.63,21.36-5.62-20.84a2.07,2.07,0,0,0-2.21-1.75,2.14,2.14,0,0,0-2.34,1.75s-5.42,19.48-5.76,20.73c-.33-1.26-5.63-21.27-5.63-21.27A1.52,1.52,0,0,0,55.71,426.63Zm44.6,1.18h0L88.69,450.34c-.51,1.18.06,1.74.63,2a1.71,1.71,0,0,0,2.13-.82l3.06-6h15.71l3.06,6a1.68,1.68,0,0,0,2.11.83,1.32,1.32,0,0,0,.65-2L104.42,427.8a2.38,2.38,0,0,0-4.11,0Zm2.06,2.12c.31.66,6.46,12.7,6.72,13.22H95.64C95.9,442.63,102.05,430.59,102.37,429.93Zm16.43-2.87c-.26.14-.39.56-.39,1.1v22.77a1.54,1.54,0,1,0,3.07,0V428.16c0-.54-.13-1-.39-1.1a1.74,1.74,0,0,0-2.29,0ZM159,428.47s-7.74,19.84-8.07,20.71c-.33-.87-8.07-20.69-8.07-20.69-.47-1.3-1.53-1.86-3.14-1.86a3.46,3.46,0,0,0-2,.58,2.55,2.55,0,0,0-.73,1.89v21.7a1.37,1.37,0,0,0,1.53,1.55A1.37,1.37,0,0,0,140,450.8V429.34c.66,1.71,8.42,21.4,8.42,21.4a2.63,2.63,0,0,0,4.94,0s7.76-19.7,8.42-21.41V450.8a1.38,1.38,0,0,0,1.54,1.55,1.54,1.54,0,0,0,1.14-.39,1.58,1.58,0,0,0,.39-1.16V429.1a2.27,2.27,0,0,0-.75-1.9,4,4,0,0,0-2-.57A3.25,3.25,0,0,0,159,428.47Zm30.94-.31v13.95a7.77,7.77,0,0,1-2.37,5.94c-1.49,1.38-3.72,2.07-6.63,2.07s-5.14-.69-6.63-2.07a7.77,7.77,0,0,1-2.37-5.94V428.16c0-.54-.13-1-.39-1.1a1.51,1.51,0,0,0-1.15-.43,1.38,1.38,0,0,0-1.53,1.53v13.95a9.69,9.69,0,0,0,2.89,7.47c2.1,1.92,5.19,2.9,9.18,2.9s7.08-1,9.17-2.9a9.66,9.66,0,0,0,2.9-7.47V428.16c0-.54-.13-1-.39-1.1a1.51,1.51,0,0,0-1.15-.43A1.38,1.38,0,0,0,189.9,428.16Zm8.72.79c-1.56,1.41-2.36,2.85-2.36,4.27a5.17,5.17,0,0,0,1.82,4,11.15,11.15,0,0,0,5.77,2.58l7.43,1.33A7.53,7.53,0,0,1,215,443a3.5,3.5,0,0,1,1.16,2.64,3.38,3.38,0,0,1-1.16,2.57c-1.39,1.3-3.81,1.95-7.16,1.95s-6-.77-7.43-2.3a8.57,8.57,0,0,1-1.72-2.69,1.63,1.63,0,0,0-2.11-.85,1.42,1.42,0,0,0-.92.78,1.36,1.36,0,0,0,.12,1.1,12.82,12.82,0,0,0,2.19,3.16c1.92,2.1,5.24,3.16,9.87,3.16,4.44,0,7.62-.85,9.44-2.54a5.7,5.7,0,0,0,2-4.34,6.28,6.28,0,0,0-2.09-4.67,10.72,10.72,0,0,0-5.23-2.38l-7.56-1.4a7.5,7.5,0,0,1-4.1-1.81,2.64,2.64,0,0,1-.88-2.12,3.79,3.79,0,0,1,1.56-2.64c1.13-1.12,3.27-1.55,6.36-1.55s5.22.51,6.35,1.8a7,7,0,0,1,1.57,2.09,1.54,1.54,0,0,0,1.85.76,1.37,1.37,0,0,0,1-1.29,2.7,2.7,0,0,0-.06-.54,6.75,6.75,0,0,0-1.8-2.63c-1.74-1.76-4.79-2.59-9-2.59C203.13,426.63,200.27,427.32,198.62,429Zm23.19-.79v22.77a1.54,1.54,0,1,0,3.08,0V428.16c0-.54-.14-1-.39-1.1a1.52,1.52,0,0,0-1.15-.43A1.38,1.38,0,0,0,221.81,428.16Zm9.52,2.12a12,12,0,0,0-3.84,9.2,12.54,12.54,0,0,0,4,9.61,13.68,13.68,0,0,0,9.58,3.39,13.12,13.12,0,0,0,9.18-3.27,10.91,10.91,0,0,0,2.74-4.33c.22-.58.23-1.35-.91-1.85a1.75,1.75,0,0,0-1.47.08,1.31,1.31,0,0,0-.54.82,7.92,7.92,0,0,1-2.1,3.52,10.08,10.08,0,0,1-7,2.67,10.57,10.57,0,0,1-7.3-3.06c-1.84-1.68-2.78-4.28-2.78-7.58s.94-5.76,2.78-7.44a10.51,10.51,0,0,1,7.3-3,9.69,9.69,0,0,1,6.76,2.21,6.61,6.61,0,0,1,1.84,3,1.69,1.69,0,0,0,2,.93c.75-.23,1.14-.62,1.14-1.34a3,3,0,0,0,0-.5,7.32,7.32,0,0,0-2.22-3.43c-2.28-2.2-5.45-3.25-9.45-3.25A13.51,13.51,0,0,0,231.33,430.28Zm19-.4ZM269,429c-1.56,1.41-2.35,2.84-2.35,4.27a5.16,5.16,0,0,0,1.81,4,11.19,11.19,0,0,0,5.77,2.58l7.43,1.33a7.61,7.61,0,0,1,3.69,1.82,3.5,3.5,0,0,1,1.16,2.64,3.38,3.38,0,0,1-1.16,2.57c-1.4,1.3-3.81,1.95-7.17,1.95s-5.94-.77-7.43-2.3a8.75,8.75,0,0,1-1.72-2.69,1.63,1.63,0,0,0-2.11-.85,1.4,1.4,0,0,0-.91.78,1.36,1.36,0,0,0,.12,1.1,12.3,12.3,0,0,0,2.19,3.16c1.92,2.1,5.24,3.16,9.86,3.16,4.44,0,7.62-.85,9.45-2.54a5.72,5.72,0,0,0,1.95-4.34,6.25,6.25,0,0,0-2.09-4.67,10.72,10.72,0,0,0-5.22-2.38l-7.57-1.4a7.46,7.46,0,0,1-4.09-1.81,2.62,2.62,0,0,1-.89-2.12,3.83,3.83,0,0,1,1.56-2.64c1.13-1.12,3.27-1.55,6.36-1.55s5.22.51,6.35,1.8a6.56,6.56,0,0,1,1.57,2.09,1.54,1.54,0,0,0,1.85.76,1.38,1.38,0,0,0,1-1.29,2.7,2.7,0,0,0-.06-.54,6.92,6.92,0,0,0-1.81-2.63c-1.74-1.76-4.78-2.59-9-2.59C273.56,426.63,270.69,427.32,269,429Zm25.69,1.33a12,12,0,0,0-3.85,9.2,12.54,12.54,0,0,0,4,9.61,13.7,13.7,0,0,0,9.58,3.39,13.11,13.11,0,0,0,9.18-3.27,11,11,0,0,0,2.75-4.33,1.35,1.35,0,0,0-.92-1.85,1.72,1.72,0,0,0-1.46.08,1.27,1.27,0,0,0-.54.82,7.94,7.94,0,0,1-2.11,3.52,10.06,10.06,0,0,1-7,2.67,10.59,10.59,0,0,1-7.31-3.06c-1.84-1.68-2.77-4.28-2.77-7.58s.93-5.76,2.77-7.44a10.53,10.53,0,0,1,7.31-3,9.7,9.7,0,0,1,6.76,2.21,6.7,6.7,0,0,1,1.84,3,1.67,1.67,0,0,0,2,.93c.76-.23,1.14-.62,1.14-1.34a2.23,2.23,0,0,0,0-.5,7.37,7.37,0,0,0-2.21-3.43c-2.28-2.2-5.46-3.25-9.45-3.25A13.48,13.48,0,0,0,294.73,430.28Zm19-.4Zm27-2.82c-.26.14-.39.56-.39,1.1v9.53h-18v-9.53c0-.54-.13-1-.39-1.1a1.74,1.74,0,0,0-2.29,0c-.26.14-.39.56-.39,1.1v22.77a1.54,1.54,0,1,0,3.07,0V440.08h18v10.85a1.54,1.54,0,1,0,3.08,0V428.16c0-.54-.14-1-.4-1.1a1.48,1.48,0,0,0-1.14-.43A1.51,1.51,0,0,0,340.73,427.06Zm9.42,2.95a12.47,12.47,0,0,0-4.12,9.47,12.6,12.6,0,0,0,4.12,9.61,15.62,15.62,0,0,0,19.43,0,12.62,12.62,0,0,0,4.11-9.61,12.49,12.49,0,0,0-4.11-9.47h0c-2.46-2.29-5.73-3.38-9.72-3.38S352.6,427.72,350.15,430Zm2.27,17.44c-2-1.86-3-4.58-3-8a10.24,10.24,0,0,1,3-7.84h0a11.91,11.91,0,0,1,14.88,0,10.25,10.25,0,0,1,3.05,7.84c0,3.39-1,6.11-3.05,8a11.7,11.7,0,0,1-14.88,0ZM379.07,430a12.46,12.46,0,0,0-4.11,9.47,12.59,12.59,0,0,0,4.11,9.61,15.62,15.62,0,0,0,19.43,0,12.6,12.6,0,0,0,4.12-9.61A12.47,12.47,0,0,0,398.5,430h0c-2.45-2.29-5.72-3.38-9.71-3.38S381.52,427.72,379.07,430Zm2.28,17.44c-2-1.86-3.05-4.58-3.05-8a10.25,10.25,0,0,1,3.05-7.84h0a11.89,11.89,0,0,1,14.87,0,10.21,10.21,0,0,1,3,7.84c0,3.39-1,6.11-3,8a11.69,11.69,0,0,1-14.87,0Zm24.27-20.39c-.25.14-.39.56-.39,1.1v21.89c0,1.59.91,2.43,2.62,2.43h15.94c1.16,0,1.4-.64,1.4-1.18s-.24-1.18-1.4-1.18h-15c-.43,0-.49-.21-.49-.43V428.16c0-.54-.13-1-.39-1.1a1.51,1.51,0,0,0-1.15-.43A1.52,1.52,0,0,0,405.62,427.06Z"/></g></g></svg>