<svg xmlns="http://www.w3.org/2000/svg" viewBox="0 0 500 44.73"><defs><style>.cls-1{fill:#e11922;}</style></defs><g id="Layer_2" data-name="Layer 2"><g id="レイヤー_1" data-name="レイヤー 1"><path class="cls-1" d="M54.93,3.3c0-.27.12-.4.37-.4s.36.13.36.4v.76a3,3,0,0,1,4.46-.32,2.65,2.65,0,0,1,.81,2,2.7,2.7,0,0,1-.81,2,3.1,3.1,0,0,1-4.46-.32V9.08c0,.26-.12.4-.36.4s-.37-.14-.37-.4Zm.73,1.64V6.47A2.44,2.44,0,0,0,57.93,8,2.14,2.14,0,0,0,60.12,5.7a2.17,2.17,0,0,0-.65-1.6,2.09,2.09,0,0,0-1.54-.64A2.56,2.56,0,0,0,55.66,4.94Z"/><path class="cls-1" d="M66.29,3.66A2.21,2.21,0,0,1,67,5.26a.46.46,0,0,1-.53.52H62.23A2.07,2.07,0,0,0,64.3,8a1.89,1.89,0,0,0,1.5-.6,1.83,1.83,0,0,0,.4-.72.32.32,0,0,1,.45-.16.33.33,0,0,1,.16.44,2.52,2.52,0,0,1-.52.88,2.43,2.43,0,0,1-2,.72,2.77,2.77,0,0,1-2.92-2.93,2.55,2.55,0,0,1,.81-1.88,2.8,2.8,0,0,1,2.07-.8A2.71,2.71,0,0,1,66.29,3.66ZM62.23,5.22H66a.18.18,0,0,0,.2-.2,1.41,1.41,0,0,0-.48-1,1.93,1.93,0,0,0-1.42-.56,2.12,2.12,0,0,0-2,1.76Z"/><path class="cls-1" d="M67.87,3.3c0-.27.12-.4.36-.4s.37.13.37.4v1a2.84,2.84,0,0,1,.57-.88A2.51,2.51,0,0,1,71,2.9c.24,0,.36.1.36.32s-.12.32-.36.32h-.45A1.61,1.61,0,0,0,69.33,4a2.88,2.88,0,0,0-.73,1.24V8.11c0,.27-.12.4-.37.4s-.36-.13-.36-.4Z"/><path class="cls-1" d="M76.18,3.58a.94.94,0,0,1,.32.6.34.34,0,0,1-.65.2,1.64,1.64,0,0,0-1.7-.92,2.06,2.06,0,0,0-1.46.4.81.81,0,0,0-.24.6c0,.32.3.54.89.64s1.31.24,2.07.4a2.32,2.32,0,0,1,1,.53,1.31,1.31,0,0,1,.37,1,1,1,0,0,1-.41.84,3.14,3.14,0,0,1-2,.64,3.09,3.09,0,0,1-2.14-.68,1.45,1.45,0,0,1-.45-.64.39.39,0,0,1,.16-.52.35.35,0,0,1,.49.2,1.36,1.36,0,0,0,.36.6A2.2,2.2,0,0,0,74.35,8a2.38,2.38,0,0,0,1.42-.4A.65.65,0,0,0,76.06,7c0-.46-.33-.75-1-.88L73.3,5.78c-1-.21-1.58-.65-1.58-1.32a1.31,1.31,0,0,1,.45-1,2.67,2.67,0,0,1,1.94-.6A2.72,2.72,0,0,1,76.18,3.58Z"/><path class="cls-1" d="M82.67,3.78a2.57,2.57,0,0,1,.77,1.88,2.72,2.72,0,0,1-.73,2,3.72,3.72,0,0,1-4.71,0,2.72,2.72,0,0,1-.72-2A2.56,2.56,0,0,1,78,3.78a3.49,3.49,0,0,1,4.63,0Zm-4,.36a2.07,2.07,0,0,0-.6,1.52,2.23,2.23,0,0,0,.6,1.65,2.49,2.49,0,0,0,3.33,0,2.24,2.24,0,0,0,.61-1.65A2.07,2.07,0,0,0,82,4.14a2.38,2.38,0,0,0-3.33,0Z"/><path class="cls-1" d="M84.33,3.3c0-.27.12-.4.37-.4s.36.13.36.4v1a3.88,3.88,0,0,1,.61-.68,2.94,2.94,0,0,1,1.94-.72,2.57,2.57,0,0,1,1.91.68,2.14,2.14,0,0,1,.57,1.6V8.11c0,.27-.12.4-.37.4s-.36-.13-.36-.4V5.3A1.76,1.76,0,0,0,88.91,4a1.86,1.86,0,0,0-1.38-.52,2.42,2.42,0,0,0-1.9.8,2.4,2.4,0,0,0-.57.88v3c0,.27-.12.4-.36.4s-.37-.13-.37-.4Z"/><path class="cls-1" d="M95.68,3.5a1.59,1.59,0,0,1,.45,1.2V7.39c0,.38.17.56.53.56S97,8,97,8.19s-.12.32-.36.32c-.46,0-.75,0-.85-.16a1.11,1.11,0,0,1-.41-.8,2.88,2.88,0,0,1-2.27,1A2.32,2.32,0,0,1,91.47,8,1.39,1.39,0,0,1,91,7a1.34,1.34,0,0,1,.41-1,3.32,3.32,0,0,1,2.19-.73,7.48,7.48,0,0,0,1.13-.12,1,1,0,0,0,.49-.24.77.77,0,0,0,.2-.56.69.69,0,0,0-.24-.48,2.07,2.07,0,0,0-1.5-.44c-1,0-1.53.33-1.75,1-.08.24-.23.33-.44.28a.33.33,0,0,1-.2-.44,1.41,1.41,0,0,1,.4-.72,2.75,2.75,0,0,1,2-.68A2.73,2.73,0,0,1,95.68,3.5Zm-.28,2a3.68,3.68,0,0,1-1.5.32c-1.43.14-2.15.53-2.15,1.17s.46,1,1.38,1A2.68,2.68,0,0,0,95.4,6.87Z"/><path class="cls-1" d="M98.24.29A.64.64,0,0,1,99,1v7.1c0,.27-.12.4-.37.4s-.36-.13-.36-.4V1.29c0-.19-.09-.28-.29-.28h-.16c-.27,0-.4-.11-.4-.32a.35.35,0,0,1,.4-.4Z"/><path class="cls-1" d="M101,1a.52.52,0,0,1,.16.4.54.54,0,0,1-.16.4.56.56,0,0,1-.41.16.54.54,0,0,1-.4-.16.54.54,0,0,1-.17-.4.53.53,0,0,1,.17-.4.54.54,0,0,1,.4-.16A.56.56,0,0,1,101,1Zm-.77,2.29c0-.27.12-.4.36-.4s.37.13.37.4V8.11c0,.27-.12.4-.37.4s-.36-.13-.36-.4Z"/><path class="cls-1" d="M103.06,2.9V1.77c0-.27.13-.4.37-.4s.37.13.37.4V2.9h1.37c.22,0,.33.09.33.28s-.11.28-.33.28H103.8V7.19a.66.66,0,0,0,.2.56,1,1,0,0,0,.64.16,1.35,1.35,0,0,0,.53-.12.32.32,0,0,1,.41.16.36.36,0,0,1-.25.44,2.31,2.31,0,0,1-.81.12,1.75,1.75,0,0,1-1.09-.28,1.21,1.21,0,0,1-.37-1V3.46h-1c-.21,0-.32-.1-.32-.28s.11-.28.32-.28Z"/><path class="cls-1" d="M108,7l-2-3.65a.35.35,0,0,1,.13-.48c.21-.11.39,0,.52.2l1.79,3.17L110,3.1c.13-.25.31-.31.52-.2a.35.35,0,0,1,.13.48l-2.76,5.41a1.34,1.34,0,0,1-.49.53,1.64,1.64,0,0,1-.77.16A2,2,0,0,1,106,9.4a.31.31,0,0,1-.2-.36.27.27,0,0,1,.33-.2,1.91,1.91,0,0,0,.48.08c.27,0,.5-.18.69-.53Z"/><path class="cls-1" d="M119,.17a1.86,1.86,0,0,1,1.38.52,1.54,1.54,0,0,1,.45,1.16,1.44,1.44,0,0,1-.45,1.08,4.58,4.58,0,0,1-1.62,1,15,15,0,0,0,2.47,2.57,14.78,14.78,0,0,0,.94-1.29.39.39,0,0,1,.52-.08.41.41,0,0,1,.12.52,11.88,11.88,0,0,1-1,1.33,6.48,6.48,0,0,0,1.34.72.45.45,0,0,1,.16.6.46.46,0,0,1-.61.12,7.8,7.8,0,0,1-1.46-.88,3.91,3.91,0,0,1-2.67,1,2.75,2.75,0,0,1-2-.68,2.23,2.23,0,0,1-.65-1.64,2.34,2.34,0,0,1,.69-1.73,5.19,5.19,0,0,1,1.18-.84,2.86,2.86,0,0,1-.69-1.69,1.63,1.63,0,0,1,.48-1.2A2,2,0,0,1,119,.17ZM117.18,4.9a1.68,1.68,0,0,0-.45,1.25,1.51,1.51,0,0,0,.41,1.12,2,2,0,0,0,1.5.6,3.22,3.22,0,0,0,2.15-.8,19.35,19.35,0,0,1-2.68-2.85A4,4,0,0,0,117.18,4.9Zm.93-3.73a.87.87,0,0,0-.28.64,2.16,2.16,0,0,0,.28,1,2,2,0,0,0,.37.53c1.1-.4,1.66-.9,1.66-1.49a1,1,0,0,0-.29-.76,1,1,0,0,0-.77-.24A1.32,1.32,0,0,0,118.11,1.17Z"/><path class="cls-1" d="M128.72.69c0-.27.12-.4.36-.4s.37.13.37.4V4.3A3,3,0,0,1,132,2.9a2.41,2.41,0,0,1,1.78.6,2.28,2.28,0,0,1,.65,1.72V8.11c0,.27-.12.4-.36.4s-.37-.13-.37-.4V5.34a1.9,1.9,0,0,0-.48-1.4,1.83,1.83,0,0,0-1.34-.48,2.44,2.44,0,0,0-1.91.8,2.5,2.5,0,0,0-.56.88v3c0,.27-.13.4-.37.4s-.36-.13-.36-.4Z"/><path class="cls-1" d="M140.07,3.5a1.59,1.59,0,0,1,.45,1.2V7.39c0,.38.17.56.52.56s.37.08.37.24-.13.32-.37.32a1.37,1.37,0,0,1-.85-.16,1.18,1.18,0,0,1-.41-.8,2.86,2.86,0,0,1-2.26,1A2.35,2.35,0,0,1,135.85,8a1.41,1.41,0,0,1-.48-1,1.33,1.33,0,0,1,.4-1A3.34,3.34,0,0,1,138,5.3a7.59,7.59,0,0,0,1.14-.12.91.91,0,0,0,.48-.24.73.73,0,0,0,.2-.56.65.65,0,0,0-.24-.48,2.05,2.05,0,0,0-1.5-.44c-.94,0-1.52.33-1.74,1a.35.35,0,0,1-.45.28.34.34,0,0,1-.2-.44,1.58,1.58,0,0,1,.4-.72,3.48,3.48,0,0,1,4-.08Zm-.29,2a3.56,3.56,0,0,1-1.49.32c-1.44.14-2.15.53-2.15,1.17s.46,1,1.38,1a2.66,2.66,0,0,0,2.26-1.08Z"/><path class="cls-1" d="M142.3,3.3c0-.27.12-.4.36-.4s.37.13.37.4v1a3,3,0,0,1,.57-.88,2.55,2.55,0,0,1,1.83-.52c.24,0,.36.1.36.32s-.12.32-.36.32H145a1.65,1.65,0,0,0-1.22.44A3,3,0,0,0,143,5.22V8.11c0,.27-.12.4-.37.4s-.36-.13-.36-.4Z"/><path class="cls-1" d="M146.56,3.3c0-.27.12-.4.36-.4s.37.13.37.4v.6a2.42,2.42,0,0,1,1.94-1,1.53,1.53,0,0,1,1.3.52,2.07,2.07,0,0,1,.41.68,2.39,2.39,0,0,1,2-1.2,1.9,1.9,0,0,1,1.41.52,2,2,0,0,1,.53,1.52V8.11c0,.27-.12.4-.36.4s-.37-.13-.37-.4V4.86a1.41,1.41,0,0,0-.36-1,1.3,1.3,0,0,0-.94-.36,1.75,1.75,0,0,0-1.29.52,1.71,1.71,0,0,0-.49.88V8.11c0,.27-.12.4-.37.4s-.36-.13-.36-.4V4.86a1.41,1.41,0,0,0-.36-1,1.3,1.3,0,0,0-.94-.36,1.75,1.75,0,0,0-1.29.52,1.71,1.71,0,0,0-.49.88V8.11c0,.27-.12.4-.37.4s-.36-.13-.36-.4Z"/><path class="cls-1" d="M161.2,3.78A2.57,2.57,0,0,1,162,5.66a2.72,2.72,0,0,1-.73,2,3.71,3.71,0,0,1-4.7,0,2.69,2.69,0,0,1-.74-2,2.54,2.54,0,0,1,.78-1.88,3.12,3.12,0,0,1,2.31-.88A3.15,3.15,0,0,1,161.2,3.78Zm-4,.36a2,2,0,0,0-.62,1.52,2.2,2.2,0,0,0,.62,1.65,2.47,2.47,0,0,0,3.32,0,2.2,2.2,0,0,0,.61-1.65,2,2,0,0,0-.61-1.52,2.37,2.37,0,0,0-3.32,0Z"/><path class="cls-1" d="M162.86,3.3c0-.27.12-.4.36-.4s.37.13.37.4v1a3.88,3.88,0,0,1,.61-.68,2.92,2.92,0,0,1,2-.72,2.56,2.56,0,0,1,1.9.68,2.14,2.14,0,0,1,.57,1.6V8.11c0,.27-.12.4-.37.4s-.36-.13-.36-.4V5.3A1.76,1.76,0,0,0,167.44,4a1.86,1.86,0,0,0-1.38-.52,2.44,2.44,0,0,0-1.9.8,2.4,2.4,0,0,0-.57.88v3c0,.27-.12.4-.37.4s-.36-.13-.36-.4Z"/><path class="cls-1" d="M171.58,7l-2-3.65a.36.36,0,1,1,.65-.28L172,6.27l1.54-3.17c.14-.25.32-.31.53-.2a.35.35,0,0,1,.12.48l-2.75,5.41a1.34,1.34,0,0,1-.49.53,1.66,1.66,0,0,1-.77.16,2,2,0,0,1-.57-.08.31.31,0,0,1-.2-.36.26.26,0,0,1,.32-.2,2.06,2.06,0,0,0,.49.08c.27,0,.5-.18.69-.53Z"/><path class="cls-1" d="M0,29.62a15.11,15.11,0,1,0,15.11-15.1A15.13,15.13,0,0,0,0,29.62Zm3.86,0A11.25,11.25,0,1,1,15.11,40.87,11.26,11.26,0,0,1,3.86,29.62Z"/><path class="cls-1" d="M23.58.23A6.87,6.87,0,0,0,18.76,5L14.15,22.24a6.83,6.83,0,0,0,8.34,8.35L39.69,26a6.83,6.83,0,0,0,3.06-11.4L30.16,2A6.82,6.82,0,0,0,23.58.23ZM22.48,6A3,3,0,0,1,24.58,4a3,3,0,0,1,2.86.76L40,17.3a3,3,0,0,1-1.34,4.95L21.5,26.86A3,3,0,0,1,17.78,24a2.84,2.84,0,0,1,.1-.76Z"/><path class="cls-1" d="M76.93,17.58S58.76,32.29,58.17,32.78V19.28c0-.57-.15-1-.44-1.15a1.53,1.53,0,0,0-1.21-.45,1.41,1.41,0,0,0-1.15.45c-.29.15-.44.58-.44,1.15V43.12a1.42,1.42,0,0,0,1.59,1.61,1.47,1.47,0,0,0,1.65-1.61V36.54c.14-.11,7.28-5.87,7.54-6.09L78.74,44a1.8,1.8,0,0,0,2.36.42,1.45,1.45,0,0,0,.63-1.12,1.91,1.91,0,0,0-.43-1.12S68.29,29,68,28.64l10.86-8.78a1.57,1.57,0,0,0,.65-1.23,1.53,1.53,0,0,0-.32-.86A1.5,1.5,0,0,0,76.93,17.58Zm18.2,1.33h0L83,42.49c-.54,1.25.06,1.82.66,2.1a1.79,1.79,0,0,0,2.23-.86s3.09-6.06,3.2-6.26H105.5c.11.2,3.2,6.25,3.2,6.25a1.77,1.77,0,0,0,2.21.87,1.39,1.39,0,0,0,.69-2.09L99.43,18.91a2.49,2.49,0,0,0-4.3,0Zm2.15,2.23c.33.68,6.77,13.28,7,13.83H90.24C90.52,34.42,97,21.82,97.28,21.14Zm16-3.46a1.36,1.36,0,0,0-1,1.79L118.89,43a2.24,2.24,0,0,0,2.45,1.69A2.16,2.16,0,0,0,123.65,43s5.54-20.71,5.89-22c.36,1.27,6,22,6,22a2.16,2.16,0,0,0,2.31,1.69A2.25,2.25,0,0,0,140.33,43l6.51-23.56a1.46,1.46,0,0,0,0-1.22,1.76,1.76,0,0,0-3,.7l-5.89,22.36L132,19.51a2.16,2.16,0,0,0-2.31-1.83,2.24,2.24,0,0,0-2.45,1.83s-5.67,20.39-6,21.7L115.31,19A1.59,1.59,0,0,0,113.25,17.68Zm46.68,1.23h0L147.77,42.49c-.54,1.25.06,1.82.66,2.1a1.79,1.79,0,0,0,2.23-.86s3.09-6.06,3.2-6.26h16.45l3.19,6.25a1.77,1.77,0,0,0,2.21.87,1.39,1.39,0,0,0,.69-2.09L164.23,18.91a2.49,2.49,0,0,0-4.3,0Zm2.15,2.23c.33.68,6.76,13.28,7,13.83H155.05C155.32,34.42,161.76,21.82,162.08,21.14Zm17.2-3c-.27.15-.41.58-.41,1.15V43.12a1.61,1.61,0,0,0,3.22,0V19.28c0-.57-.14-1-.41-1.15a1.53,1.53,0,0,0-1.2-.45A1.56,1.56,0,0,0,179.28,18.13Zm42.05,1.47s-8.11,20.77-8.46,21.68c-.34-.91-8.44-21.65-8.44-21.65-.5-1.37-1.61-1.95-3.29-1.95a3.57,3.57,0,0,0-2.11.61,2.66,2.66,0,0,0-.77,2V43a1.44,1.44,0,0,0,1.61,1.62,1.43,1.43,0,0,0,1.6-1.62V20.52l8.82,22.4a2.75,2.75,0,0,0,5.17,0s8.12-20.62,8.81-22.4V43a1.44,1.44,0,0,0,1.61,1.62,1.63,1.63,0,0,0,1.2-.41,1.65,1.65,0,0,0,.41-1.21V20.26a2.42,2.42,0,0,0-.79-2,4.19,4.19,0,0,0-2.09-.59A3.38,3.38,0,0,0,221.33,19.6Zm32.37-.32v14.6a8.11,8.11,0,0,1-2.48,6.22c-1.56,1.44-3.89,2.16-6.93,2.16s-5.39-.72-6.94-2.16a8.11,8.11,0,0,1-2.48-6.22V19.28c0-.57-.14-1-.41-1.15a1.56,1.56,0,0,0-1.2-.45,1.44,1.44,0,0,0-1.61,1.6v14.6a10.15,10.15,0,0,0,3,7.82c2.19,2,5.43,3,9.61,3s7.41-1,9.6-3a10.15,10.15,0,0,0,3-7.82V19.28c0-.57-.13-1-.41-1.15a1.53,1.53,0,0,0-1.2-.45A1.45,1.45,0,0,0,253.7,19.28Zm9.14.83c-1.64,1.47-2.47,3-2.47,4.47a5.43,5.43,0,0,0,1.9,4.2,11.67,11.67,0,0,0,6,2.7l7.77,1.39a7.9,7.9,0,0,1,3.86,1.9,3.66,3.66,0,0,1,1.21,2.76,3.53,3.53,0,0,1-1.21,2.7c-1.46,1.36-4,2-7.5,2s-6.22-.8-7.78-2.41a9.29,9.29,0,0,1-1.8-2.81,1.71,1.71,0,0,0-2.21-.89,1.5,1.5,0,0,0-.95.82,1.44,1.44,0,0,0,.12,1.15,13,13,0,0,0,2.3,3.31c2,2.2,5.48,3.3,10.32,3.3,4.65,0,8-.89,9.89-2.65a6,6,0,0,0,2-4.55,6.52,6.52,0,0,0-2.18-4.88,11.11,11.11,0,0,0-5.47-2.49l-7.92-1.47a7.8,7.8,0,0,1-4.28-1.9,2.71,2.71,0,0,1-.93-2.21,4,4,0,0,1,1.63-2.77c1.18-1.17,3.43-1.62,6.66-1.62s5.46.54,6.64,1.89a6.91,6.91,0,0,1,1.65,2.19,1.62,1.62,0,0,0,1.93.79,1.44,1.44,0,0,0,1.06-1.36,2.38,2.38,0,0,0-.07-.56,7,7,0,0,0-1.89-2.75c-1.82-1.85-5-2.71-9.46-2.71C267.56,17.68,264.56,18.4,262.84,20.11Zm24.27-.83V43.12a1.61,1.61,0,1,0,3.22,0V19.28c0-.57-.14-1-.41-1.15a1.55,1.55,0,0,0-1.2-.45A1.45,1.45,0,0,0,287.11,19.28Zm10,2.22a12.61,12.61,0,0,0-4,9.63,13.09,13.09,0,0,0,4.17,10.05,14.3,14.3,0,0,0,10,3.55,13.64,13.64,0,0,0,9.6-3.42,11.5,11.5,0,0,0,2.88-4.53c.22-.6.24-1.41-1-1.94a1.91,1.91,0,0,0-1.54.08,1.45,1.45,0,0,0-.56.87,8.26,8.26,0,0,1-2.2,3.68,10.55,10.55,0,0,1-7.36,2.79,11,11,0,0,1-7.65-3.2c-1.93-1.76-2.91-4.47-2.91-7.93s1-6,2.91-7.79a11,11,0,0,1,7.65-3.15,10.15,10.15,0,0,1,7.07,2.31,7,7,0,0,1,1.93,3.12,1.76,1.76,0,0,0,2.06,1c.79-.24,1.2-.65,1.2-1.41a2.52,2.52,0,0,0-.06-.52A7.6,7.6,0,0,0,317,21.08c-2.38-2.3-5.7-3.4-9.88-3.4A14.2,14.2,0,0,0,297.07,21.5ZM317,21.08Zm19.56-1c-1.63,1.47-2.47,3-2.47,4.47a5.43,5.43,0,0,0,1.91,4.2,11.64,11.64,0,0,0,6,2.7l7.77,1.39a8,8,0,0,1,3.86,1.9,3.68,3.68,0,0,1,1.21,2.76,3.57,3.57,0,0,1-1.21,2.7c-1.46,1.36-4,2-7.51,2s-6.22-.8-7.77-2.41a9.11,9.11,0,0,1-1.8-2.81,1.71,1.71,0,0,0-2.21-.89,1.47,1.47,0,0,0-.95.82,1.4,1.4,0,0,0,.12,1.15,12.69,12.69,0,0,0,2.29,3.31c2,2.2,5.49,3.3,10.32,3.3,4.66,0,8-.89,9.9-2.65a6,6,0,0,0,2-4.55,6.53,6.53,0,0,0-2.19-4.88,11.08,11.08,0,0,0-5.46-2.49l-7.93-1.47a7.83,7.83,0,0,1-4.28-1.9,2.74,2.74,0,0,1-.92-2.21,4,4,0,0,1,1.63-2.77c1.18-1.17,3.42-1.62,6.65-1.62s5.46.54,6.64,1.89a6.73,6.73,0,0,1,1.65,2.19,1.63,1.63,0,0,0,1.94.79,1.45,1.45,0,0,0,1.05-1.36,3,3,0,0,0-.06-.56,7.11,7.11,0,0,0-1.89-2.75c-1.82-1.85-5-2.71-9.47-2.71C341.27,17.68,338.27,18.4,336.55,20.11Zm26.88,1.39a12.57,12.57,0,0,0-4,9.63,13.11,13.11,0,0,0,4.16,10.05,14.33,14.33,0,0,0,10,3.55,13.69,13.69,0,0,0,9.61-3.42,11.5,11.5,0,0,0,2.88-4.53,1.42,1.42,0,0,0-1-1.94,1.91,1.91,0,0,0-1.54.08,1.41,1.41,0,0,0-.56.87,8.27,8.27,0,0,1-2.21,3.68,10.52,10.52,0,0,1-7.36,2.79,11,11,0,0,1-7.64-3.2c-1.93-1.76-2.91-4.47-2.91-7.93s1-6,2.91-7.79a11,11,0,0,1,7.64-3.15,10.18,10.18,0,0,1,7.08,2.31,7.09,7.09,0,0,1,1.93,3.12,1.76,1.76,0,0,0,2.06,1c.79-.24,1.19-.65,1.19-1.41a2.46,2.46,0,0,0-.05-.52,7.6,7.6,0,0,0-2.32-3.59c-2.38-2.3-5.71-3.4-9.89-3.4A14.16,14.16,0,0,0,363.43,21.5Zm19.92-.42Zm28.24-2.95c-.27.15-.41.58-.41,1.15v10H392.34v-10c0-.57-.14-1-.41-1.15a1.82,1.82,0,0,0-2.4,0c-.27.15-.41.58-.41,1.15V43.12a1.61,1.61,0,1,0,3.22,0V31.75h18.84V43.12a1.61,1.61,0,1,0,3.22,0V19.28c0-.57-.14-1-.41-1.15a1.82,1.82,0,0,0-2.4,0Zm9.85,3.09a13.07,13.07,0,0,0-4.3,9.91,13.18,13.18,0,0,0,4.3,10.05,16.34,16.34,0,0,0,20.34,0,13.16,13.16,0,0,0,4.31-10,13,13,0,0,0-4.31-9.91h0c-2.57-2.4-6-3.54-10.17-3.54S424,18.82,421.44,21.22Zm2.39,18.25c-2.12-1.95-3.19-4.79-3.19-8.34a10.71,10.71,0,0,1,3.19-8.21h0a12.47,12.47,0,0,1,15.57,0,10.75,10.75,0,0,1,3.19,8.21c0,3.55-1.08,6.39-3.19,8.34a12.26,12.26,0,0,1-15.57,0Zm27.89-18.25a13,13,0,0,0-4.31,9.91,13.16,13.16,0,0,0,4.31,10.05,16.34,16.34,0,0,0,20.34,0,13.16,13.16,0,0,0,4.31-10,13,13,0,0,0-4.31-9.91h0c-2.57-2.4-6-3.54-10.17-3.54S454.29,18.82,451.72,21.22Zm2.38,18.25c-2.11-1.95-3.19-4.79-3.19-8.34a10.75,10.75,0,0,1,3.19-8.21h0a12.47,12.47,0,0,1,15.57,0,10.71,10.71,0,0,1,3.19,8.21c0,3.55-1.07,6.39-3.19,8.34a12.26,12.26,0,0,1-15.57,0Zm25.41-21.34c-.27.15-.41.58-.41,1.15V42.2c0,1.66,1,2.53,2.75,2.53h16.68c1.21,0,1.47-.66,1.47-1.22s-.26-1.25-1.47-1.25h-15.7c-.44,0-.51-.22-.51-.45V19.28c0-.57-.13-1-.4-1.15a1.84,1.84,0,0,0-2.41,0Z"/></g></g></svg>