<svg xmlns="http://www.w3.org/2000/svg" xmlns:xlink="http://www.w3.org/1999/xlink" viewBox="0 0 298.3 206.29"><defs><style>.cls-1,.cls-13{fill:none;}.cls-2{fill:#221815;}.cls-3{clip-path:url(#clip-path);}.cls-4{fill:url(#名称未設定グラデーション);}.cls-5{clip-path:url(#clip-path-2);}.cls-6{fill:url(#名称未設定グラデーション_2);}.cls-7{fill:#afa73a;}.cls-8{fill:#ec8626;}.cls-9{clip-path:url(#clip-path-3);}.cls-10{fill:url(#名称未設定グラデーション_3);}.cls-11{fill:#cb132f;}.cls-12{fill:#2d75a6;}.cls-13{stroke:#2d75a6;stroke-linecap:round;stroke-linejoin:round;stroke-width:0.71px;}</style><clipPath id="clip-path"><path class="cls-1" d="M109.58,82.87a24.58,24.58,0,1,0,24.57-24.58,24.57,24.57,0,0,0-24.57,24.58"/></clipPath><radialGradient id="名称未設定グラデーション" cx="386.62" cy="465.15" r="1" gradientTransform="matrix(45.86, 0, 0, -45.86, -17613.12, 21401.03)" gradientUnits="userSpaceOnUse"><stop offset="0" stop-color="#1cb4a3"/><stop offset="0.45" stop-color="#1cb4a3"/><stop offset="0.49" stop-color="#1aac9a"/><stop offset="0.72" stop-color="#0c7c68"/><stop offset="0.9" stop-color="#035e49"/><stop offset="1" stop-color="#00533d"/></radialGradient><clipPath id="clip-path-2"><path class="cls-1" d="M65.58,88.54A12.88,12.88,0,1,0,78.46,75.66,12.88,12.88,0,0,0,65.58,88.54"/></clipPath><radialGradient id="名称未設定グラデーション_2" cx="371.05" cy="465.29" r="1" gradientTransform="matrix(23.91, 0, 0, -23.91, -8801.65, 11207.4)" gradientUnits="userSpaceOnUse"><stop offset="0" stop-color="#add37a"/><stop offset="0.45" stop-color="#add37a"/><stop offset="0.82" stop-color="#87c780"/><stop offset="1" stop-color="#73c083"/></radialGradient><clipPath id="clip-path-3"><path class="cls-1" d="M170.76,130.91A56.11,56.11,0,1,0,226.88,74.8a56.12,56.12,0,0,0-56.12,56.11"/></clipPath><radialGradient id="名称未設定グラデーション_3" cx="397.28" cy="465.05" r="1" gradientTransform="matrix(123.39, 0, 0, -123.39, -48827.17, 57475.89)" gradientUnits="userSpaceOnUse"><stop offset="0" stop-color="#3282c5"/><stop offset="0.45" stop-color="#3282c5"/><stop offset="0.66" stop-color="#1e6f8f"/><stop offset="1" stop-color="#00533d"/></radialGradient></defs><g id="Layer_2" data-name="Layer 2"><g id="レイヤー_1" data-name="レイヤー 1"><path class="cls-2" d="M115.1,36.12C92.64,59.28,72,84.1,50.76,108.35,39.33,121.38,25,141.87,7.7,147.53c-.29.09,0,1.5,0,1.5,17.34-5.66,31.6-24.91,43.06-37.94,21.31-24.21,42-49,64.34-72.22A313.22,313.22,0,0,1,159.77,0q-4.2.55-8.45,1.45C138.15,12.8,126,24.88,115.1,36.12"/><path class="cls-2" d="M119.81,56c-22.91,20-44.32,41.69-66.58,62.42-13.17,12.27-29.16,28.26-47.45,32.45-.22.05,0,1.5,0,1.5,18.32-4.2,34.22-18.95,47.45-31.2C75.55,100.53,97,78.92,119.81,58.79,144.5,37,174.2,15.79,206.57,4.31q-5-1.63-10.15-2.78c-28.34,14-54.34,35-76.61,54.51"/><path class="cls-2" d="M122.79,75.41c-23.58,16.52-46,34.65-69,52C39,138.54,22.38,149.9,3.86,154.25c-.22.05,0,1.5,0,1.5,18.54-4.35,35.09-14.49,50-25.64,23-17.25,45.44-35.34,69-52,35.78-25.27,79.12-47,124.13-49.57a107.73,107.73,0,0,0-9-7.69c-41.77,6.49-81.34,30.82-115.17,54.52"/><path class="cls-2" d="M128.16,93.83c-24.4,13.54-47.88,28.63-71.89,42.81C39.49,146.55,21.42,154,2,157.55c-.18,0,0,1.5,0,1.5,18.71-3.41,36-9,52.17-18.4,24-14,47.28-29,71.43-42.61C169,73.5,219.2,55.89,270.09,60.75a108.68,108.68,0,0,0-5.49-10.21c-48.07-1.48-95.09,20.36-136.44,43.29"/><path class="cls-2" d="M135.66,111.86c-24.81,10.57-49,22.51-73.67,33.43C42.18,154.06,21.63,157.61.07,160.81c-.16,0,0,1.5,0,1.5,20.66-3.06,40.25-4.86,59.3-13.12,24.62-10.68,48.69-22.59,73.3-33.3C178.56,95.92,228.83,86,279.27,93a103.88,103.88,0,0,0-2-11.48c-48.74-5-97,11.31-141.61,30.31"/><g class="cls-3"><rect class="cls-4" x="109.58" y="58.29" width="49.15" height="49.15"/></g><g class="cls-5"><rect class="cls-6" x="65.58" y="75.66" width="25.75" height="25.75"/></g><path class="cls-7" d="M48.91,102.92a7.19,7.19,0,1,1-7.18-7.18,7.18,7.18,0,0,1,7.18,7.18"/><path class="cls-8" d="M29.2,122a4.15,4.15,0,1,1-4.15-4.15A4.15,4.15,0,0,1,29.2,122"/><g class="cls-9"><rect class="cls-10" x="170.76" y="74.8" width="112.22" height="112.22"/></g><path class="cls-11" d="M16.82,138.21a2.31,2.31,0,1,1-2.31-2.31,2.31,2.31,0,0,1,2.31,2.31"/><path class="cls-12" d="M254.08,197.64c1.37,4.28-.46,7.13-3.26,8s-5.92-.65-7.14-4.46c-1.28-4,.28-7.09,3.29-8.06S252.88,193.91,254.08,197.64Zm-9.39,3.21c.86,2.68,3.2,4.87,5.9,4s3.41-3.94,2.48-6.84c-.8-2.51-3-4.95-5.91-4S243.83,198.16,244.69,200.85Z"/><path class="cls-13" d="M247.17,194c2.88-.92,5.1,1.51,5.91,4,.93,2.9.27,6-2.49,6.84s-5-1.32-5.9-4S244.22,194.93,247.17,194Zm-.2-.83c-3,1-4.57,4-3.29,8.06,1.22,3.81,4.2,5.4,7.14,4.46s4.63-3.75,3.26-8C252.89,193.91,250,192.17,247,193.15Z"/><path class="cls-12" d="M268.72,197.23l-.86.48-7.47-4.06a44.2,44.2,0,0,1-4.11-2.46l0,0c.86,1.34,1.55,2.55,2.61,4.45l3,5.38-.86.47-6.17-11.09.89-.5,7.57,4.08a43.25,43.25,0,0,1,4,2.41l0,0c-1-1.46-1.68-2.72-2.66-4.47l-2.95-5.31.88-.49Z"/><path class="cls-13" d="M262.56,186.13l-.88.48,2.95,5.31c1,1.76,1.7,3,2.66,4.48l0,0a39.25,39.25,0,0,0-4-2.41l-7.57-4.08-.89.5L261,201.53l.86-.48-3-5.38c-1.06-1.9-1.75-3.1-2.61-4.44l0,0a46.5,46.5,0,0,0,4.11,2.46l7.48,4.06.86-.48Z"/><path class="cls-12" d="M278.66,189.73l-5.09,4.07-7.93-9.91.81-.65,7.38,9.23,4.29-3.42Z"/><polygon class="cls-13" points="278.12 189.05 273.84 192.47 266.45 183.24 265.64 183.88 273.57 193.8 278.67 189.73 278.12 189.05"/><path class="cls-12" d="M272.83,177.69l.73-.73,9,9-.73.74Z"/><rect class="cls-13" x="277.16" y="175.46" width="1.04" height="12.7" transform="translate(-47.27 249.39) rotate(-44.96)"/><path class="cls-12" d="M291.83,174.78l-.59.78-8.48-.71a45.89,45.89,0,0,1-4.75-.6v.05c1.32.88,2.44,1.71,4.17,3l4.9,3.73-.6.78-10.11-7.68.62-.81,8.57.69a42,42,0,0,1,4.63.6v0c-1.47-.95-2.64-1.82-4.24-3l-4.83-3.68.61-.79Z"/><path class="cls-13" d="M281.73,167.09l-.61.8,4.83,3.67c1.6,1.22,2.77,2.09,4.24,3v0a42,42,0,0,0-4.63-.6l-8.57-.7-.62.82,10.11,7.68.6-.78-4.91-3.73c-1.73-1.32-2.84-2.14-4.17-3l0,0a42.61,42.61,0,0,0,4.75.61l8.48.71.59-.79Z"/><path class="cls-12" d="M298,163.88l-3,5.81-11.25-5.89,2.91-5.55.77.4-2.43,4.64,4.18,2.18,2.29-4.37.77.4-2.29,4.38,4.76,2.48,2.56-4.88Z"/><polygon class="cls-13" points="297.18 163.47 294.62 168.37 289.86 165.88 292.15 161.5 291.38 161.1 289.09 165.47 284.91 163.28 287.34 158.65 286.56 158.24 283.66 163.8 294.91 169.69 297.95 163.87 297.18 163.47"/></g></g></svg>